<mxfile host="65bd71144e" modified="2021-01-19T09:07:26.592Z" agent="5.0 (Windows NT 10.0; Win64; x64) AppleWebKit/537.36 (KHTML, like Gecko) Code/1.52.1 Chrome/83.0.4103.122 Electron/9.3.5 Safari/537.36" version="13.10.0" etag="pI90rGAPOZXa2YHjwmzB" type="embed">
    <diagram id="ZEsW3TtGAVUP4-1iuB8b" name="Page-1">
        <mxGraphModel dx="1374" dy="790" grid="1" gridSize="10" guides="1" tooltips="1" connect="1" arrows="1" fold="1" page="1" pageScale="1" pageWidth="827" pageHeight="1169" math="0" shadow="0">
            <root>
                <mxCell id="0"/>
                <mxCell id="1" parent="0"/>
                <mxCell id="2" value="Classifier1" style="swimlane;fontStyle=1;align=center;verticalAlign=top;childLayout=stackLayout;horizontal=1;startSize=30;horizontalStack=0;resizeParent=1;resizeParentMax=0;resizeLast=0;collapsible=0;marginBottom=0;html=1;" vertex="1" parent="1">
                    <mxGeometry x="470" y="200" width="140" height="200" as="geometry"/>
                </mxCell>
                <mxCell id="3" value="internal structure" style="html=1;strokeColor=none;fillColor=none;align=center;verticalAlign=middle;spacingLeft=4;spacingRight=4;rotatable=0;points=[[0,0.5],[1,0.5]];resizeWidth=1;" vertex="1" parent="2">
                    <mxGeometry y="30" width="140" height="30" as="geometry"/>
                </mxCell>
                <mxCell id="4" value="" style="strokeColor=none;fillColor=none;" vertex="1" parent="2">
                    <mxGeometry y="60" width="140" height="140" as="geometry"/>
                </mxCell>
                <mxCell id="5" value="property1" style="html=1;align=center;verticalAlign=middle;rotatable=0;" vertex="1" parent="4">
                    <mxGeometry width="100" height="30" relative="1" as="geometry">
                        <mxPoint x="20" y="20" as="offset"/>
                    </mxGeometry>
                </mxCell>
                <mxCell id="6" value="property2" style="html=1;align=center;verticalAlign=middle;rotatable=0;" vertex="1" parent="4">
                    <mxGeometry width="100" height="30" relative="1" as="geometry">
                        <mxPoint x="20" y="90" as="offset"/>
                    </mxGeometry>
                </mxCell>
                <mxCell id="7" value="connector1" style="edgeStyle=none;endArrow=none;verticalAlign=middle;labelBackgroundColor=none;endSize=12;html=1;align=left;endFill=0;exitX=0.15;exitY=1;entryX=0.15;entryY=0;spacingLeft=4;" edge="1" parent="4" source="5" target="6">
                    <mxGeometry relative="1" as="geometry"/>
                </mxCell>
                <mxCell id="8" value="Classifier1" style="swimlane;fontStyle=1;align=center;verticalAlign=top;childLayout=stackLayout;horizontal=1;startSize=30;horizontalStack=0;resizeParent=1;resizeParentMax=0;resizeLast=0;collapsible=0;marginBottom=0;html=1;" vertex="1" parent="1">
                    <mxGeometry x="470" y="200" width="140" height="200" as="geometry"/>
                </mxCell>
                <mxCell id="9" value="internal structure" style="html=1;strokeColor=none;fillColor=none;align=center;verticalAlign=middle;spacingLeft=4;spacingRight=4;rotatable=0;points=[[0,0.5],[1,0.5]];resizeWidth=1;" vertex="1" parent="8">
                    <mxGeometry y="30" width="140" height="30" as="geometry"/>
                </mxCell>
                <mxCell id="10" value="" style="strokeColor=none;fillColor=none;" vertex="1" parent="8">
                    <mxGeometry y="60" width="140" height="140" as="geometry"/>
                </mxCell>
                <mxCell id="11" value="property1" style="html=1;align=center;verticalAlign=middle;rotatable=0;" vertex="1" parent="10">
                    <mxGeometry width="100" height="30" relative="1" as="geometry">
                        <mxPoint x="20" y="20" as="offset"/>
                    </mxGeometry>
                </mxCell>
                <mxCell id="12" value="property2" style="html=1;align=center;verticalAlign=middle;rotatable=0;" vertex="1" parent="10">
                    <mxGeometry width="100" height="30" relative="1" as="geometry">
                        <mxPoint x="20" y="90" as="offset"/>
                    </mxGeometry>
                </mxCell>
                <mxCell id="13" value="connector1" style="edgeStyle=none;endArrow=none;verticalAlign=middle;labelBackgroundColor=none;endSize=12;html=1;align=left;endFill=0;exitX=0.15;exitY=1;entryX=0.15;entryY=0;spacingLeft=4;" edge="1" parent="10" source="11" target="12">
                    <mxGeometry relative="1" as="geometry"/>
                </mxCell>
                <mxCell id="14" value="Instance1" style="swimlane;fontStyle=4;align=center;verticalAlign=top;childLayout=stackLayout;horizontal=1;startSize=30;horizontalStack=0;resizeParent=1;resizeParentMax=0;resizeLast=0;collapsible=0;marginBottom=0;html=1;" vertex="1" parent="1">
                    <mxGeometry x="230" y="220" width="140" height="138" as="geometry"/>
                </mxCell>
                <mxCell id="15" value="slot1" style="html=1;strokeColor=none;fillColor=none;align=left;verticalAlign=middle;spacingLeft=4;spacingRight=4;rotatable=0;points=[[0,0.5],[1,0.5]];resizeWidth=1;" vertex="1" parent="14">
                    <mxGeometry y="30" width="140" height="30" as="geometry"/>
                </mxCell>
                <mxCell id="16" value="" style="line;strokeWidth=1;fillColor=none;align=left;verticalAlign=middle;spacingTop=-1;spacingLeft=3;spacingRight=3;rotatable=0;labelPosition=right;points=[];portConstraint=eastwest;" vertex="1" parent="14">
                    <mxGeometry y="60" width="140" height="8" as="geometry"/>
                </mxCell>
                <mxCell id="17" value="internal structure" style="html=1;strokeColor=none;fillColor=none;align=center;verticalAlign=middle;spacingLeft=4;spacingRight=4;rotatable=0;points=[[0,0.5],[1,0.5]];resizeWidth=1;" vertex="1" parent="14">
                    <mxGeometry y="68" width="140" height="20" as="geometry"/>
                </mxCell>
                <mxCell id="18" value="" style="strokeColor=none;fillColor=none;" vertex="1" parent="14">
                    <mxGeometry y="88" width="140" height="50" as="geometry"/>
                </mxCell>
                <mxCell id="19" value="instance2" style="html=1;align=center;verticalAlign=middle;rotatable=0;" vertex="1" parent="18">
                    <mxGeometry width="80" height="30" relative="1" as="geometry">
                        <mxPoint x="30" y="10" as="offset"/>
                    </mxGeometry>
                </mxCell>
            </root>
        </mxGraphModel>
    </diagram>
</mxfile>